<svg id="Layer_1" data-name="Layer 1" xmlns="http://www.w3.org/2000/svg" viewBox="0 0 171.77 171.77"><defs><style>.cls-1{fill:#fff;}.cls-2{fill:#e01e5a;}.cls-3{fill:#36c5f0;}.cls-4{fill:#2eb67d;}.cls-5{fill:#ecb22e;}</style></defs><circle class="cls-1" cx="85.74" cy="85.62" r="86"/><path class="cls-2" d="M50.28,102.08a12.9,12.9,0,1,1-12.9-12.9h12.9Z"/><path class="cls-2" d="M56.78,102.08a12.9,12.9,0,1,1,25.8,0v32.3a12.9,12.9,0,1,1-25.8,0Z"/><path class="cls-3" d="M69.68,50.28a12.9,12.9,0,1,1,12.9-12.9v12.9Z"/><path class="cls-3" d="M69.68,56.78a12.9,12.9,0,0,1,0,25.8H37.38a12.9,12.9,0,0,1,0-25.8Z"/><path class="cls-4" d="M121.48,69.68a12.9,12.9,0,1,1,12.9,12.9h-12.9Z"/><path class="cls-4" d="M115,69.68a12.9,12.9,0,0,1-25.8,0V37.38a12.9,12.9,0,0,1,25.8,0Z"/><path class="cls-5" d="M102.08,121.48a12.9,12.9,0,1,1-12.9,12.9v-12.9Z"/><path class="cls-5" d="M102.08,115a12.9,12.9,0,1,1,0-25.8h32.3a12.9,12.9,0,1,1,0,25.8Z"/></svg>